# Blender v3.5.1 OBJ File: 'Final_Level_3.blend'
# www.blender.org
mtllib corridor.mtl
o corridor.001
v 0.500000 0.000000 0.500000
v 0.500000 0.000000 -0.500000
v 0.400000 0.000000 0.500000
v 0.400000 0.000000 -0.500000
v -0.500000 0.000000 -0.500000
v -0.500000 0.100000 -0.500000
v -0.500000 0.000000 0.500000
v -0.500000 0.100000 0.500000
v -0.200000 1.000000 -0.500000
v -0.200000 1.000000 0.500000
v -0.300000 1.000000 -0.500000
v -0.300000 1.000000 0.500000
v -0.500000 0.800000 -0.500000
v -0.500000 0.800000 0.500000
v 0.300000 1.000000 -0.500000
v 0.500000 0.800000 -0.500000
v 0.300000 1.000000 0.500000
v 0.500000 0.800000 0.500000
v 0.500000 0.100000 -0.500000
v 0.500000 0.100000 0.500000
v -0.400000 0.000000 -0.500000
v -0.400000 0.100000 -0.500000
v 0.200000 1.000000 -0.500000
v 0.200000 1.000000 0.500000
v -0.400000 0.758579 -0.500000
v -0.400000 0.758579 0.500000
v -0.400000 0.100000 0.500000
v -0.400000 0.000000 0.500000
v 0.400000 0.758579 -0.500000
v 0.400000 0.758579 0.500000
v 0.400000 0.100000 -0.500000
v 0.400000 0.100000 0.500000
v 0.258579 0.900000 -0.500000
v 0.258579 0.900000 0.500000
v -0.258579 0.900000 0.500000
v -0.258579 0.900000 -0.500000
v 0.500000 0.400000 -0.500000
v 0.500000 0.400000 0.500000
v 0.500000 0.200000 0.500000
v -0.500000 0.400000 0.500000
v -0.500000 0.200000 0.500000
v -0.500000 0.400000 -0.500000
v -0.500000 0.200000 -0.500000
v 0.500000 0.200000 -0.500000
vt 15.748030 19.685040
vt 19.685040 -19.685040
vt 19.685040 19.685040
vt 15.748030 -19.685040
vt 19.685040 0.000000
vt -19.685040 3.937008
vt -19.685040 0.000000
vt 19.685040 3.937008
vt 11.811020 -19.685040
vt 7.874017 19.685040
vt 7.874017 -19.685040
vt 11.811020 19.685040
vt 19.685040 8.351655
vt -19.685040 19.487190
vt -19.685040 8.351655
vt 19.685040 19.487190
vt -19.685040 19.487190
vt 19.685040 8.351655
vt 19.685040 19.487190
vt -19.685040 8.351655
vt -19.685040 3.937008
vt 19.685040 0.000000
vt 19.685040 3.937008
vt -19.685040 0.000000
vt 19.685040 3.937008
vt 15.748030 0.000000
vt 19.685040 0.000000
vt 15.748030 3.937008
vt -7.874015 -19.685040
vt -11.811020 19.685040
vt -11.811020 -19.685040
vt -7.874015 19.685040
vt -19.685040 29.865299
vt 19.685040 3.937008
vt 19.685040 29.865299
vt 19.685040 0.000000
vt -19.685040 3.937008
vt -19.685040 0.000000
vt -19.685040 3.937008
vt 19.685040 29.865299
vt -19.685040 29.865299
vt -19.685040 0.000000
vt 19.685040 3.937008
vt 19.685040 0.000000
vt -19.685040 9.982416
vt 19.685040 17.856430
vt -19.685040 17.856430
vt 19.685040 9.982417
vt -10.180260 19.685040
vt 10.180260 -19.685040
vt 10.180260 19.685040
vt -10.180260 -19.685040
vt 19.685040 17.856430
vt -19.685040 9.982417
vt 19.685040 9.982416
vt -19.685040 17.856430
vt -19.685040 19.685040
vt -15.748030 -19.685040
vt -15.748030 19.685040
vt -19.685040 -19.685040
vt -15.748030 0.000000
vt -19.685040 3.937008
vt -19.685040 -0.000000
vt -15.748030 3.937008
vt 19.685040 3.937008
vt 15.748030 0.000000
vt 19.685040 -0.000000
vt 15.748030 3.937008
vt -15.748030 0.000000
vt -19.685040 3.937008
vt -19.685040 0.000000
vt -15.748030 3.937008
vt -19.685040 31.496059
vt 19.685040 15.748030
vt 19.685040 31.496059
vt -19.685040 15.748030
vt 19.685040 7.874016
vt 15.748030 29.865299
vt 19.685040 15.748030
vt 19.685040 31.496059
vt 10.180260 35.433071
vt 11.811020 39.370079
vt -11.811020 39.370079
vt -10.180260 35.433071
vt -19.685040 31.496059
vt -15.748030 29.865299
vt -19.685040 15.748030
vt -19.685040 7.874016
vt 7.874015 39.370079
vt -7.874017 39.370079
vt 19.685040 15.748030
vt -19.685040 31.496059
vt -19.685040 15.748030
vt 19.685040 31.496059
vt -19.685040 7.874016
vt 19.685040 7.874016
vt -19.685040 7.874016
vt 19.685040 7.874016
vt 19.685040 7.874016
vt 15.748030 29.865299
vt 19.685040 15.748030
vt 19.685040 31.496059
vt 10.180260 35.433071
vt 11.811020 39.370079
vt -10.180260 35.433071
vt -11.811020 39.370079
vt -19.685040 31.496059
vt -15.748030 29.865299
vt -19.685040 15.748030
vt -19.685040 7.874016
vt 7.874017 39.370079
vt -7.874015 39.370079
vn -0.0000 -1.0000 0.0000
vn -1.0000 0.0000 0.0000
vn 0.0000 1.0000 0.0000
vn -0.7071 0.7071 0.0000
vn 0.7071 0.7071 0.0000
vn 1.0000 0.0000 0.0000
vn -0.0000 0.0000 -1.0000
vn -0.7071 -0.7071 0.0000
vn 0.7071 -0.7071 0.0000
vn 0.0000 0.0000 1.0000
usemtl metalDark.004
s 1
f 3/1/1 2/2/1 1/3/1
f 2/2/1 3/1/1 4/4/1
f 7/5/2 6/6/2 5/7/2
f 6/6/2 7/5/2 8/8/2
f 11/9/3 10/10/3 9/11/3
f 10/10/3 11/9/3 12/12/3
f 14/13/4 11/14/4 13/15/4
f 11/14/4 14/13/4 12/16/4
f 17/17/5 16/18/5 15/19/5
f 16/18/5 17/17/5 18/20/5
f 20/21/6 2/22/6 19/23/6
f 2/22/6 20/21/6 1/24/6
f 6/25/7 21/26/7 5/27/7
f 21/26/7 6/25/7 22/28/7
f 23/29/3 17/30/3 15/31/3
f 17/30/3 23/29/3 24/32/3
f 26/33/6 22/34/6 25/35/6
f 22/34/6 26/33/6 21/36/6
f 21/36/6 26/33/6 27/37/6
f 21/36/6 27/37/6 28/38/6
f 31/39/2 30/40/2 29/41/2
f 30/40/2 31/39/2 4/42/2
f 30/40/2 4/42/2 32/43/2
f 32/43/2 4/42/2 3/44/2
f 29/45/8 34/46/8 33/47/8
f 34/46/8 29/45/8 30/48/8
f 35/49/1 33/50/1 34/51/1
f 33/50/1 35/49/1 36/52/1
f 36/53/9 26/54/9 25/55/9
f 26/54/9 36/53/9 35/56/9
f 7/57/1 21/58/1 28/59/1
f 21/58/1 7/57/1 5/60/1
f 28/61/10 8/62/10 7/63/10
f 8/62/10 28/61/10 27/64/10
f 20/65/10 3/66/10 1/67/10
f 3/66/10 20/65/10 32/68/10
f 4/69/7 19/70/7 2/71/7
f 19/70/7 4/69/7 31/72/7
usemtl metal.004
f 18/73/6 37/74/6 16/75/6
f 37/74/6 18/73/6 38/76/6
f 39/77/10 32/68/10 20/65/10
f 32/68/10 39/77/10 30/78/10
f 30/78/10 39/77/10 38/79/10
f 30/78/10 38/79/10 18/80/10
f 30/78/10 18/80/10 34/81/10
f 34/81/10 18/80/10 17/82/10
f 12/83/10 34/81/10 17/82/10
f 12/83/10 35/84/10 34/81/10
f 14/85/10 35/84/10 12/83/10
f 14/85/10 26/86/10 35/84/10
f 40/87/10 26/86/10 14/85/10
f 41/88/10 26/86/10 40/87/10
f 41/88/10 27/64/10 26/86/10
f 27/64/10 41/88/10 8/62/10
f 12/83/10 17/82/10 24/89/10
f 12/83/10 24/89/10 10/90/10
f 40/91/2 13/92/2 42/93/2
f 13/92/2 40/91/2 14/94/2
f 8/8/2 43/95/2 6/6/2
f 43/95/2 8/8/2 41/96/2
f 39/97/6 19/23/6 44/98/6
f 19/23/6 39/97/6 20/21/6
f 9/11/3 24/32/3 23/29/3
f 24/32/3 9/11/3 10/10/3
f 43/99/7 22/28/7 6/25/7
f 22/28/7 43/99/7 25/100/7
f 25/100/7 43/99/7 42/101/7
f 25/100/7 42/101/7 13/102/7
f 25/100/7 13/102/7 36/103/7
f 36/103/7 13/102/7 11/104/7
f 36/103/7 11/104/7 33/105/7
f 15/106/7 33/105/7 11/104/7
f 16/107/7 33/105/7 15/106/7
f 16/107/7 29/108/7 33/105/7
f 37/109/7 29/108/7 16/107/7
f 44/110/7 29/108/7 37/109/7
f 44/110/7 31/72/7 29/108/7
f 31/72/7 44/110/7 19/70/7
f 15/106/7 11/104/7 9/111/7
f 15/106/7 9/111/7 23/112/7
usemtl metalRed.004
f 41/96/2 42/93/2 43/95/2
f 42/93/2 41/96/2 40/91/2
f 38/76/6 44/98/6 37/74/6
f 44/98/6 38/76/6 39/97/6
