# Blender v3.5.1 OBJ File: 'Final_Level_2.blend'
# www.blender.org
mtllib meteor_detailed.mtl
o meteor_detailed
v 0.345548 0.647698 -0.081259
v 0.318995 0.633501 -0.055537
v 0.309548 0.647698 -0.143613
v 0.273995 0.633501 -0.133479
v -0.319434 0.079066 -0.114915
v -0.353044 0.134294 -0.134319
v -0.292886 0.091422 -0.086597
v -0.337699 0.165060 -0.112470
v 0.017917 0.436377 0.375000
v -0.001583 0.416877 0.412500
v -0.132083 0.436377 0.375000
v -0.112583 0.416877 0.412500
v 0.346140 0.177540 0.115388
v 0.362234 0.147388 0.136804
v 0.293640 0.177540 0.206321
v 0.320234 0.147388 0.209550
v 0.363808 0.559864 -0.081409
v 0.381398 0.588788 -0.101957
v -0.261363 0.555987 0.264298
v -0.287972 0.592152 0.259049
v -0.209082 0.641897 0.234113
v -0.253466 0.648852 0.239127
v 0.320409 0.078660 0.112656
v 0.293859 0.091630 0.085203
v -0.082237 0.277476 -0.412500
v -0.082237 0.391326 -0.412500
v -0.107812 0.251901 -0.375000
v -0.107812 0.416901 -0.375000
v -0.349925 0.461825 -0.143912
v -0.406175 0.461825 -0.046484
v -0.388588 0.449450 -0.151945
v -0.432463 0.449450 -0.075951
v -0.285684 0.079066 -0.173372
v -0.247886 0.091422 -0.164539
v -0.319294 0.134294 -0.192776
v -0.292699 0.165060 -0.190412
v -0.349925 0.349325 -0.143912
v -0.388588 0.361700 -0.151945
v -0.406175 0.349325 -0.046484
v -0.432463 0.361700 -0.075951
v 0.031613 0.391326 -0.412500
v 0.031613 0.277476 -0.412500
v 0.057188 0.416901 -0.375000
v 0.057188 0.251901 -0.375000
v -0.001583 0.305877 0.412500
v -0.112583 0.305877 0.412500
v 0.427532 0.311318 0.084493
v 0.390632 0.311318 0.148406
v 0.399106 0.319418 0.058728
v 0.354106 0.319418 0.136671
v 0.399106 0.229418 0.058728
v 0.427532 0.237518 0.084493
v 0.278409 0.078660 0.185402
v 0.241359 0.091630 0.176136
v 0.318808 0.559864 -0.159351
v 0.345398 0.588788 -0.164311
v 0.017917 0.286377 0.375000
v -0.132083 0.286377 0.375000
v 0.390632 0.237518 0.148406
v -0.313863 0.555987 0.173365
v -0.322622 0.592152 0.199034
v 0.354106 0.229418 0.136671
v -0.288116 0.648852 0.179112
v -0.261582 0.641897 0.143181
v 0.160215 0.063750 0.277500
v -0.160215 0.063750 0.277500
v 0.216506 0.202500 0.375000
v -0.216506 0.202500 0.375000
v -0.216506 0.532500 -0.375000
v -0.160215 0.671250 -0.277500
v -0.433013 0.532500 0.000000
v -0.320429 0.671250 0.000000
v -0.080107 0.735000 -0.138750
v -0.160215 0.735000 0.000000
v -0.216506 0.202500 -0.375000
v -0.433013 0.202500 0.000000
v -0.080107 0.000000 0.138750
v -0.160215 0.000000 0.000000
v -0.320429 0.063750 0.000000
v -0.080107 0.000000 -0.138750
v -0.160215 0.063750 -0.277500
v 0.320429 0.063750 0.000000
v 0.160215 0.063750 -0.277500
v 0.160215 0.000000 0.000000
v 0.080107 0.000000 -0.138750
v -0.216506 0.532500 0.375000
v -0.160215 0.671250 0.277500
v 0.160215 0.735000 0.000000
v 0.080107 0.735000 0.138750
v 0.080107 0.735000 -0.138750
v -0.080107 0.735000 0.138750
v 0.160215 0.671250 -0.277500
v 0.216506 0.532500 0.375000
v 0.160215 0.671250 0.277500
v 0.216506 0.202500 -0.375000
v 0.320429 0.671250 0.000000
v 0.433013 0.532500 0.000000
v 0.080107 0.000000 0.138750
v 0.216506 0.532500 -0.375000
v 0.433013 0.202500 0.000000
vt 1.196912 21.828720
vt 4.385889 20.310419
vt 4.031558 21.828720
vt 0.842582 20.310419
vt -10.683190 4.461580
vt -13.693080 6.172977
vt -12.209220 3.968354
vt -12.661670 7.401078
vt -5.200117 -5.172537
vt -0.062322 -6.836593
vt 0.705395 -5.172537
vt -4.432401 -6.836593
vt -1.254286 -3.494595
vt 2.466187 -5.027755
vt 2.879572 -3.494595
vt -0.840900 -5.027755
vt 13.952870 22.052111
vt 10.900140 23.828529
vt 12.899170 20.902969
vt 12.353640 24.392559
vt -9.533925 22.544941
vt -12.752780 20.523800
vt -11.748630 19.054411
vt -11.291070 22.827560
vt -10.758100 4.403883
vt -14.112920 6.625969
vt -12.259540 3.887027
vt -13.074830 7.827561
vt -9.805643 9.917362
vt -11.592680 15.406540
vt -11.592680 10.924250
vt -9.805643 16.413429
vt 2.468731 -9.876947
vt 6.410660 -8.322257
vt 1.981526 -8.322257
vt 5.923455 -9.876947
vt 14.189510 5.838844
vt 11.179620 4.127448
vt 12.705650 3.634221
vt 13.158100 7.066945
vt 6.410660 18.329969
vt 2.468731 19.884661
vt 1.981526 18.329969
vt 5.923455 19.884661
vt 10.928630 16.413429
vt 12.715670 10.924250
vt 12.715670 15.406540
vt 10.928630 9.917362
vt -0.062322 16.412491
vt -4.432401 12.042410
vt -0.062322 12.042410
vt -4.432401 16.412491
vt 5.854036 -11.775890
vt 2.629627 -13.286320
vt 5.535139 -13.286320
vt 2.310729 -11.775890
vt -13.195000 12.575510
vt -14.705430 9.351095
vt -13.195000 9.032198
vt -14.705430 12.256610
vt 14.475860 6.380376
vt 11.121040 4.158290
vt 12.622480 3.641434
vt 13.437770 7.581968
vt -11.907590 24.516920
vt -14.960320 22.740499
vt -13.906630 21.591360
vt -13.361100 25.080950
vt -0.062322 19.964340
vt -5.200117 18.300289
vt 0.705395 18.300289
vt -4.432401 19.964340
vt 2.629627 12.256610
vt 5.535139 9.351095
vt 5.535139 12.256610
vt 2.629627 9.351095
vt -12.011150 13.752940
vt -13.565840 17.694860
vt -13.565840 14.240140
vt -12.011150 18.182070
vt 3.866431 26.000160
vt 0.435328 27.635260
vt -0.267428 26.000160
vt 3.163675 27.635260
vt -0.287484 10.109380
vt 2.369997 12.766860
vt -0.287484 12.766860
vt 2.369997 10.109380
vt 5.923455 14.240140
vt 2.468731 17.694860
vt 2.468731 14.240140
vt 5.923455 17.694860
vt -1.196912 13.170330
vt -4.031558 10.335690
vt -1.196912 10.335690
vt -4.031558 13.170330
vt 3.237690 15.406540
vt -1.244593 10.924250
vt 3.237690 10.924250
vt -1.244593 15.406540
vt 16.429260 9.351095
vt 14.918840 12.575510
vt 14.918840 9.032198
vt 16.429260 12.256610
vt -4.385889 25.796089
vt -1.196912 27.314390
vt -4.031558 27.314390
vt -0.842582 25.796089
vt -2.812910 -9.957394
vt 0.287484 -11.498780
vt 0.730397 -9.957394
vt -2.369997 -11.498780
vt 0.435328 10.497550
vt 3.163675 13.225900
vt 0.435328 13.225900
vt 3.163675 10.497550
vt 13.054740 19.883120
vt 12.597170 23.656269
vt 10.840030 23.373659
vt 14.058880 21.352510
vt -1.244593 -4.736279
vt 4.244580 -2.949236
vt -2.251483 -2.949236
vt 3.237690 -4.736279
vt 16.195761 14.240140
vt 14.641070 18.182070
vt 14.641070 13.752940
vt 16.195761 17.694860
vt 4.244580 17.785040
vt -1.244593 19.572081
vt -2.251483 17.785040
vt 3.237690 19.572081
vt -14.437290 16.412491
vt -12.773240 11.274700
vt -12.773240 17.180210
vt -14.437290 12.042410
vt 2.629627 17.848370
vt 5.854036 16.337950
vt 5.535139 17.848370
vt 2.310729 16.337950
vt 0.840900 -11.360480
vt -2.879572 -9.827324
vt -2.466187 -11.360480
vt 1.254286 -9.827324
vt 2.369997 -4.925335
vt -0.730397 -3.383952
vt -0.287484 -4.925335
vt 2.812910 -3.383952
vt 2.466187 13.396920
vt -0.840900 10.089830
vt 2.466187 10.089830
vt -0.840900 13.396920
vt 12.363640 12.042410
vt 10.699580 17.180210
vt 10.699580 11.274700
vt 12.363640 16.412491
vt 0.267428 15.803980
vt -3.163675 17.439079
vt -3.866431 15.803980
vt -0.435328 17.439079
vt 8.523872 15.011350
vt -6.307665 8.334926
vt 6.307665 8.334926
vt -8.523872 15.011350
vt 8.523872 8.664666
vt -6.307665 15.341090
vt -8.523872 8.664666
vt 6.307665 15.341090
vt -6.307665 1.105873
vt 3.153833 7.117469
vt -3.153833 7.117469
vt 6.307665 1.105873
vt 8.523872 7.972441
vt -8.523872 20.964569
vt -8.523872 7.972441
vt 1.981526 13.752940
vt 6.410660 13.752940
vt 6.410660 18.182070
vt 1.981526 18.182070
vt 8.523872 20.964569
vt 6.307665 10.975330
vt -3.153833 4.963737
vt 3.153833 4.963737
vt -6.307665 10.975330
vt 3.153833 4.963737
vt -6.307665 10.975330
vt -3.153833 4.963737
vt 6.307665 10.975330
vt -3.153833 4.963737
vt 6.307665 10.975330
vt -6.307665 10.975330
vt 3.153833 4.963737
vt -8.523872 8.664666
vt -0.267428 9.794799
vt -6.307665 15.341090
vt 8.523872 8.664666
vt -0.267428 13.928660
vt 3.866431 9.794799
vt 6.307665 15.341090
vt 3.866431 13.928660
vt -3.153833 -5.462598
vt -3.153833 5.462598
vt -6.307665 0.000000
vt 3.153833 -5.462598
vt 3.153833 5.462598
vt 6.307665 0.000000
vt 6.307665 1.105873
vt -3.153833 7.117469
vt -6.307665 1.105873
vt 3.153833 7.117469
vt 8.523872 7.972441
vt 0.705395 11.274700
vt -8.523872 7.972441
vt 8.523872 20.964569
vt 0.705395 17.180210
vt -5.200117 17.180210
vt -5.200117 11.274700
vt -8.523872 20.964569
vt 3.153833 7.117469
vt -6.307665 1.105873
vt 6.307665 1.105873
vt -3.153833 7.117469
vt 8.523872 15.011350
vt -6.307665 8.334926
vt 6.307665 8.334926
vt -8.523872 15.011350
vt 8.523872 7.972441
vt -8.523872 20.964569
vt -8.523872 7.972441
vt 8.523872 20.964569
vt -6.307665 15.341090
vt 8.523872 8.664666
vt 6.307665 15.341090
vt -8.523872 8.664666
vt -6.307665 10.975330
vt 3.153833 4.963737
vt 6.307665 10.975330
vt -3.153833 4.963737
vt -6.307665 10.975330
vt 3.153833 4.963737
vt 6.307665 10.975330
vt -3.153833 4.963737
vt 8.523872 7.972441
vt 4.244580 9.917362
vt -8.523872 7.972441
vt 8.523872 20.964569
vt 4.244580 16.413429
vt -2.251483 16.413429
vt -2.251483 9.917362
vt -8.523872 20.964569
vt 8.523872 15.011350
vt 2.879572 13.810300
vt 6.307665 8.334926
vt -8.523872 15.011350
vt 2.879572 9.676442
vt -1.254286 13.810300
vt -6.307665 8.334926
vt -1.254286 9.676442
vt -3.153833 4.963737
vt 6.307665 10.975330
vt -6.307665 10.975330
vt 3.153833 4.963737
vt -6.307665 8.334926
vt -0.730397 9.666471
vt -0.730397 13.209780
vt 6.307665 8.334926
vt 2.812910 9.666471
vt -8.523872 15.011350
vt 8.523872 15.011350
vt 2.812910 13.209780
vt 6.307665 1.105873
vt -3.153833 7.117469
vt -6.307665 1.105873
vt 3.153833 7.117469
vt 8.523872 20.964569
vt 5.854036 12.575510
vt 8.523872 7.972441
vt -8.523872 20.964569
vt 2.310729 12.575510
vt 2.310729 9.032198
vt 5.854036 9.032198
vt -8.523872 7.972441
vt 6.307665 15.341090
vt -0.842582 13.524670
vt -0.842582 9.981359
vt -6.307665 15.341090
vt -4.385889 13.524670
vt 8.523872 8.664666
vt -8.523872 8.664666
vt -4.385889 9.981359
vt -8.523872 15.011350
vt 6.307665 8.334926
vt 8.523872 15.011350
vt -6.307665 8.334926
vt 6.307665 8.334926
vt -8.523872 15.011350
vt -6.307665 8.334926
vt 8.523872 15.011350
vt 3.153833 5.462598
vt 3.153833 -5.462598
vt 6.307665 0.000000
vt -3.153833 5.462598
vt -3.153833 -5.462598
vt -6.307665 0.000000
vt -8.523872 20.964569
vt 8.523872 7.972441
vt 8.523872 20.964569
vt -8.523872 7.972441
vt 6.307665 15.341090
vt -8.523872 8.664666
vt 8.523872 8.664666
vt -6.307665 15.341090
vt 6.307665 15.341090
vt -8.523872 8.664666
vt 8.523872 8.664666
vt -6.307665 15.341090
vt 3.153833 7.117469
vt -6.307665 1.105873
vt 6.307665 1.105873
vt -3.153833 7.117469
vt -3.153833 7.117469
vt 6.307665 1.105873
vt 3.153833 7.117469
vt -6.307665 1.105873
vn -0.3188 0.9298 0.1841
vn -0.6825 -0.1652 0.7119
vn -0.6825 -0.1652 0.7120
vn 0.0000 0.8872 0.4614
vn 0.6705 0.6329 0.3871
vn 0.6516 0.1342 0.7466
vn 0.1469 0.2471 0.9578
vn 0.6725 -0.1550 -0.7236
vn -0.8262 0.0000 -0.5634
vn -0.2714 0.9496 -0.1567
vn 0.2753 -0.1652 -0.9471
vn -0.2714 -0.9496 -0.1567
vn 0.8262 0.0000 -0.5634
vn 0.0000 0.0000 1.0000
vn 0.1828 0.9775 0.1056
vn 0.6716 0.0000 -0.7409
vn -0.2904 -0.1550 0.9443
vn -0.3208 0.1342 -0.9376
vn 0.0000 -0.8872 0.4614
vn 0.8660 0.0000 0.5000
vn -0.7462 0.0000 0.6657
vn -0.7541 -0.4917 0.4354
vn -0.7086 -0.5749 -0.4091
vn -0.8660 0.0000 -0.5000
vn 0.7086 0.5749 -0.4091
vn 0.0000 0.0000 -1.0000
vn -0.3059 0.0000 0.9521
vn 0.6495 -0.6614 -0.3750
vn 0.2733 -0.9489 0.1578
vn -0.7086 0.5749 0.4091
vn -0.7560 0.2471 -0.6061
vn 0.0000 0.8262 -0.5634
vn 0.2034 0.0000 -0.9791
vn 0.0000 -0.8262 -0.5634
vn 0.8872 0.0000 0.4614
vn 0.1828 -0.9775 0.1056
vn -0.2884 -0.9429 -0.1665
vn -0.6805 0.6185 -0.3929
vn 0.7086 -0.5749 0.4091
vn -0.8872 0.0000 0.4614
vn 0.1450 0.9859 -0.0837
vn 0.0000 -0.5749 0.8182
vn -0.7086 0.5749 -0.4091
vn -0.3616 0.9087 -0.2088
vn -0.3616 0.9087 -0.2087
vn -0.3616 -0.9087 0.2088
vn -0.3616 -0.9087 -0.2088
vn 0.3616 -0.9087 -0.2088
vn 0.0000 1.0000 0.0000
vn 0.0000 0.9087 -0.4175
vn 0.0000 0.9087 0.4175
vn 0.0000 -0.5749 -0.8182
vn -0.8660 0.0000 0.5000
vn 0.7086 0.5749 0.4091
vn 0.0000 -0.9087 0.4175
vn 0.3616 -0.9087 0.2088
vn 0.0000 -0.9087 -0.4175
vn 0.3616 0.9087 -0.2087
vn 0.3616 0.9087 -0.2088
vn 0.7086 -0.5749 -0.4091
vn -0.7086 -0.5749 0.4091
vn 0.0000 -1.0000 0.0000
vn 0.8660 0.0000 -0.5000
vn 0.0000 0.5749 0.8182
vn 0.0000 0.5749 -0.8182
vn 0.3616 0.9087 0.2087
vn 0.3616 0.9087 0.2088
vn -0.3616 0.9087 0.2088
vn -0.3616 0.9087 0.2087
usemtl rockTrack
s 1
f 3/1/1 2/2/1 1/3/1
f 2/2/1 3/1/1 4/4/1
f 7/5/2 6/6/3 5/7/2
f 6/6/3 7/5/2 8/8/3
f 11/9/4 10/10/4 9/11/4
f 10/10/4 11/9/4 12/12/4
f 15/13/5 14/14/5 13/15/5
f 14/14/5 15/13/5 16/16/5
f 18/17/6 2/18/6 17/19/6
f 2/18/6 18/17/6 1/20/6
f 21/21/7 20/22/7 19/23/7
f 20/22/7 21/21/7 22/24/7
f 24/25/8 14/26/8 23/27/8
f 14/26/8 24/25/8 13/28/8
f 27/29/9 26/30/9 25/31/9
f 26/30/9 27/29/9 28/32/9
f 31/33/10 30/34/10 29/35/10
f 30/34/10 31/33/10 32/36/10
f 35/37/11 34/38/11 33/39/11
f 34/38/11 35/37/11 36/40/11
f 39/41/12 38/42/12 37/43/12
f 38/42/12 39/41/12 40/44/12
f 43/45/13 42/46/13 41/47/13
f 42/46/13 43/45/13 44/48/13
f 10/49/14 46/50/14 45/51/14
f 46/50/14 10/49/14 12/52/14
f 49/53/15 48/54/15 47/55/15
f 48/54/15 49/53/15 50/56/15
f 49/57/16 52/58/16 51/59/16
f 52/58/16 49/57/16 47/60/16
f 16/61/17 54/62/17 53/63/17
f 54/62/17 16/61/17 15/64/17
f 4/65/18 56/66/18 55/67/18
f 56/66/18 4/65/18 3/68/18
f 45/69/19 58/70/19 57/71/19
f 58/70/19 45/69/19 46/72/19
f 48/73/20 52/74/20 47/75/20
f 52/74/20 48/73/20 59/76/20
f 39/77/21 32/78/21 40/79/21
f 32/78/21 39/77/21 30/80/21
f 19/81/22 61/82/22 60/83/22
f 61/82/22 19/81/22 20/84/22
f 33/85/23 6/86/23 35/87/23
f 6/86/23 33/85/23 5/88/23
f 40/89/24 31/90/24 38/91/24
f 31/90/24 40/89/24 32/92/24
f 3/93/25 18/94/25 56/95/25
f 18/94/25 3/93/25 1/96/25
f 26/97/26 42/98/26 25/99/26
f 42/98/26 26/97/26 41/100/26
f 59/101/27 50/102/27 62/103/27
f 50/102/27 59/101/27 48/104/27
f 17/105/28 56/106/28 18/107/28
f 56/106/28 17/105/28 55/108/28
f 7/109/29 33/110/29 34/111/29
f 33/110/29 7/109/29 5/112/29
f 61/113/30 22/114/30 63/115/30
f 22/114/30 61/113/30 20/116/30
f 60/117/31 63/118/31 64/119/31
f 63/118/31 60/117/31 61/120/31
f 41/121/32 28/122/32 43/123/32
f 28/122/32 41/121/32 26/124/32
f 38/125/33 29/126/33 37/127/33
f 29/126/33 38/125/33 31/128/33
f 27/129/34 42/130/34 44/131/34
f 42/130/34 27/129/34 25/132/34
f 10/133/35 57/134/35 9/135/35
f 57/134/35 10/133/35 45/136/35
f 59/137/36 51/138/36 52/139/36
f 51/138/36 59/137/36 62/140/36
f 53/141/37 24/142/37 23/143/37
f 24/142/37 53/141/37 54/144/37
f 6/145/38 36/146/38 35/147/38
f 36/146/38 6/145/38 8/148/38
f 14/149/39 53/150/39 23/151/39
f 53/150/39 14/149/39 16/152/39
f 46/153/40 11/154/40 58/155/40
f 11/154/40 46/153/40 12/156/40
f 64/157/41 22/158/41 21/159/41
f 22/158/41 64/157/41 63/160/41
f 67/161/42 66/162/42 65/163/42
f 66/162/42 67/161/42 68/164/42
f 71/165/43 70/166/43 69/167/43
f 70/166/43 71/165/43 72/168/43
f 70/169/44 74/170/44 73/171/44
f 74/170/44 70/169/44 72/172/45
f 76/173/24 69/174/24 75/175/24
f 69/174/24 76/173/24 37/176/24
f 37/176/24 76/173/24 39/177/24
f 39/177/24 76/173/24 30/178/24
f 29/179/24 69/174/24 37/176/24
f 69/174/24 29/179/24 71/180/24
f 71/180/24 29/179/24 30/178/24
f 71/180/24 30/178/24 76/173/24
f 66/181/46 78/182/46 77/183/46
f 78/182/46 66/181/46 79/184/46
f 78/185/47 81/186/47 80/187/47
f 81/186/47 78/185/47 79/188/47
f 84/189/48 83/190/48 82/191/48
f 83/190/48 84/189/48 85/192/48
f 71/193/30 60/194/30 72/195/30
f 60/194/30 71/193/30 86/196/30
f 72/195/30 60/194/30 64/197/30
f 60/194/30 86/196/30 19/198/30
f 19/198/30 86/196/30 87/199/30
f 64/197/30 87/199/30 72/195/30
f 87/199/30 64/197/30 21/200/30
f 87/199/30 21/200/30 19/198/30
f 90/201/49 89/202/49 88/203/49
f 89/202/49 90/201/49 73/204/49
f 89/202/49 73/204/49 91/205/49
f 91/205/49 73/204/49 74/206/49
f 70/207/50 90/208/50 92/209/50
f 90/208/50 70/207/50 73/210/50
f 67/211/14 57/212/14 68/213/14
f 57/212/14 67/211/14 93/214/14
f 57/212/14 93/214/14 9/215/14
f 9/215/14 93/214/14 11/216/14
f 58/217/14 68/213/14 57/212/14
f 68/213/14 58/217/14 86/218/14
f 86/218/14 58/217/14 11/216/14
f 86/218/14 11/216/14 93/214/14
f 89/219/51 87/220/51 94/221/51
f 87/220/51 89/219/51 91/222/51
f 75/223/52 83/224/52 81/225/52
f 83/224/52 75/223/52 95/226/52
f 68/227/53 71/228/53 76/229/53
f 71/228/53 68/227/53 86/230/53
f 94/231/54 97/232/54 96/233/54
f 97/232/54 94/231/54 93/234/54
f 66/235/55 98/236/55 65/237/55
f 98/236/55 66/235/55 77/238/55
f 65/239/56 84/240/56 82/241/56
f 84/240/56 65/239/56 98/242/56
f 75/243/26 27/244/26 95/245/26
f 27/244/26 75/243/26 69/246/26
f 27/244/26 69/246/26 28/247/26
f 28/247/26 69/246/26 43/248/26
f 44/249/26 95/245/26 27/244/26
f 95/245/26 44/249/26 99/250/26
f 99/250/26 44/249/26 43/248/26
f 99/250/26 43/248/26 69/246/26
f 100/251/39 13/252/39 82/253/39
f 13/252/39 100/251/39 67/254/39
f 82/253/39 13/252/39 24/255/39
f 13/252/39 67/254/39 15/256/39
f 15/256/39 67/254/39 65/257/39
f 24/255/39 65/257/39 82/253/39
f 65/257/39 24/255/39 54/258/39
f 65/257/39 54/258/39 15/256/39
f 85/259/57 81/260/57 83/261/57
f 81/260/57 85/259/57 80/262/57
f 81/263/23 34/264/23 36/265/23
f 34/264/23 81/263/23 79/266/23
f 34/264/23 79/266/23 7/267/23
f 36/265/23 75/268/23 81/263/23
f 75/268/23 36/265/23 76/269/23
f 76/269/23 7/267/23 79/266/23
f 76/269/23 36/265/23 8/270/23
f 76/269/23 8/270/23 7/267/23
f 92/271/58 88/272/58 96/273/58
f 88/272/58 92/271/58 90/274/59
f 97/275/20 49/276/20 100/277/20
f 49/276/20 97/275/20 93/278/20
f 49/276/20 93/278/20 50/279/20
f 50/279/20 93/278/20 62/280/20
f 51/281/20 100/277/20 49/276/20
f 100/277/20 51/281/20 67/282/20
f 67/282/20 51/281/20 62/280/20
f 67/282/20 62/280/20 93/278/20
f 92/283/25 4/284/25 55/285/25
f 4/284/25 92/283/25 96/286/25
f 4/284/25 96/286/25 2/287/25
f 55/285/25 99/288/25 92/283/25
f 99/288/25 55/285/25 97/289/25
f 97/289/25 2/287/25 96/286/25
f 97/289/25 55/285/25 17/290/25
f 97/289/25 17/290/25 2/287/25
f 100/291/60 83/292/60 95/293/60
f 83/292/60 100/291/60 82/294/60
f 66/295/61 76/296/61 79/297/61
f 76/296/61 66/295/61 68/298/61
f 98/299/62 85/300/62 84/301/62
f 85/300/62 98/299/62 77/302/62
f 85/300/62 77/302/62 80/303/62
f 80/303/62 77/302/62 78/304/62
f 97/305/63 95/306/63 99/307/63
f 95/306/63 97/305/63 100/308/63
f 94/309/64 86/310/64 93/311/64
f 86/310/64 94/309/64 87/312/64
f 70/313/65 99/314/65 69/315/65
f 99/314/65 70/313/65 92/316/65
f 88/317/66 94/318/66 96/319/66
f 94/318/66 88/317/66 89/320/67
f 74/321/68 87/322/68 91/323/68
f 87/322/68 74/321/68 72/324/69
