# Blender v3.5.1 OBJ File: 'Final_Level_4.blend'
# www.blender.org
mtllib Cube.mtl
o Cube.001
v 1.000000 1.000000 1.000000
v 1.000000 1.000000 -1.000000
v 1.000000 -1.000000 1.000000
v 1.000000 -1.000000 -1.000000
v -1.000000 1.000000 1.000000
v -1.000000 1.000000 -1.000000
v -1.000000 -1.000000 1.000000
v -1.000000 -1.000000 -1.000000
vt 0.875000 0.500000
vt 0.625000 0.750000
vt 0.625000 0.500000
vt 0.375000 1.000000
vt 0.375000 0.750000
vt 0.625000 0.000000
vt 0.375000 0.250000
vt 0.375000 0.000000
vt 0.375000 0.500000
vt 0.125000 0.750000
vt 0.125000 0.500000
vt 0.625000 0.250000
vt 0.875000 0.750000
vt 0.625000 1.000000
vn 0.0000 0.0000 1.0000
vn 0.0000 -1.0000 0.0000
vn -1.0000 0.0000 0.0000
vn 0.0000 0.0000 -1.0000
vn 1.0000 0.0000 0.0000
vn 0.0000 1.0000 0.0000
usemtl Material
s off
f 5/1/1 3/2/1 1/3/1
f 3/2/2 8/4/2 4/5/2
f 7/6/3 6/7/3 8/8/3
f 2/9/4 8/10/4 6/11/4
f 1/3/5 4/5/5 2/9/5
f 5/12/6 2/9/6 6/7/6
f 5/1/1 7/13/1 3/2/1
f 3/2/2 7/14/2 8/4/2
f 7/6/3 5/12/3 6/7/3
f 2/9/4 4/5/4 8/10/4
f 1/3/5 3/2/5 4/5/5
f 5/12/6 1/3/6 2/9/6
o craft_speederB.003
v 1.153347 17.896063 1.206487
v 0.768898 18.664961 1.206487
v 0.768898 17.896063 1.206487
v 0.768898 22.893900 1.206487
v 2.306694 22.893900 1.206487
v 3.844489 22.893900 1.206487
v 3.844489 20.587206 1.206487
v 0.768898 20.202757 1.206487
v 2.306694 24.431694 1.206487
v 1.153347 24.431694 1.590936
v 0.768898 24.431694 1.206487
v 0.768898 24.431694 3.128731
v 1.153347 24.431694 2.744282
v 1.922245 24.431694 2.744282
v 1.922245 24.431694 1.590936
v 2.306694 24.431694 3.128731
v 3.844489 20.587206 1.590936
v 3.075592 21.932777 1.590936
v 3.844489 22.893900 1.590936
v 2.306694 22.893900 1.590936
v 2.306694 21.932777 1.590936
v 3.075592 21.548328 1.590936
v 1.153347 17.896063 1.590936
v 2.306694 20.587206 1.590936
v 2.306694 21.548328 1.590936
v 0.768898 19.049410 1.590936
v 0.768898 17.896063 1.590936
v 3.075592 21.932777 1.783160
v 3.075592 21.548328 1.783160
v 2.691143 21.932777 1.975385
v 2.691143 21.548328 1.975385
v 2.306694 21.932777 1.975385
v 2.306694 21.548328 1.975385
v 1.730020 21.740553 3.128731
v 1.730020 20.202757 3.128732
v 0.768898 21.740553 3.128731
v 0.768898 20.202757 3.128732
v 0.768898 21.740553 2.744283
v 1.730020 21.740553 2.744283
v 1.730020 20.202757 2.744283
v 0.768898 20.202757 2.744283
v -0.768898 24.431694 1.206487
v -1.922245 24.431694 1.590936
v -2.306693 24.431694 1.206487
v -2.306693 24.431694 3.128731
v -1.922245 24.431694 2.744282
v -1.153347 24.431694 2.744282
v -1.153347 24.431694 1.590936
v -0.768898 24.431694 3.128731
v -0.768898 17.896063 1.206487
v -0.768898 18.664961 1.206487
v -1.153347 17.896063 1.206487
v -0.768898 20.202757 1.206487
v -0.768898 22.893900 1.206487
v -2.306693 22.893900 1.206487
v -3.844489 20.587206 1.206487
v -3.844489 22.893900 1.206487
v -0.768898 20.587206 1.206487
v -0.768898 20.202757 2.744283
v -1.730020 20.202757 2.744283
v -0.768898 20.202757 3.128732
v -1.730020 20.202757 3.128732
v -1.730020 21.740553 2.744283
v -0.768898 21.740553 2.744283
v -1.730020 21.740553 3.128731
v -0.768898 21.740553 3.128731
v -2.306693 21.356104 1.590936
v -2.306693 20.587206 1.590936
v -3.075592 21.356104 1.590936
v -3.844489 20.587206 1.590936
v -1.153347 17.896063 1.590936
v -0.768898 17.896063 1.590936
v -0.768898 19.049410 1.590936
v -3.075592 21.740553 1.590936
v -3.844489 22.893900 1.590936
v -2.306693 21.740553 1.590936
v -2.306693 22.893900 1.590936
v -2.691143 21.356104 1.975385
v -3.075592 21.356104 1.783160
v -2.691143 21.740553 1.975385
v -3.075592 21.740553 1.783160
v -2.306693 21.740553 1.975385
v -2.306693 21.356104 1.975385
v 0.768898 17.896063 1.328547
v 2.306694 22.893900 2.744283
v 2.306694 20.587206 2.744283
v 2.034847 20.315359 2.359834
v 0.768898 19.049410 2.744283
v 1.040744 19.321257 2.359834
v 1.040744 19.321257 1.975385
v 2.034847 20.315359 1.975385
v 0.768898 22.893900 2.744283
v -0.768898 17.896063 1.328547
v -2.306693 20.587206 2.744283
v -2.034847 20.315359 1.975385
v -1.040744 19.321257 1.975385
v -1.040744 19.321257 2.359834
v -2.034847 20.315359 2.359834
v -0.768898 19.049410 2.744283
v -2.306693 22.893900 2.744283
v -0.768898 22.893900 2.744283
v -0.768898 16.893112 1.487762
v 0.768898 16.644028 1.527303
v -0.768898 16.644028 1.527303
v 0.768898 16.893112 1.487762
v 2.306694 24.047245 3.128731
v 0.768898 24.047245 3.128731
v 0.768898 23.124569 2.821172
v 0.768898 23.278349 1.206487
v 0.768898 23.278349 2.744282
v -0.768898 23.278349 2.744282
v 0.768898 21.740553 3.513181
v -0.768898 23.124569 2.821172
v -0.768898 21.740553 3.513181
v -0.768898 23.278349 1.206487
v 0.768898 20.202757 3.513181
v -0.768898 20.202757 3.513181
v -0.768898 24.047245 3.128731
v -2.306693 24.047245 3.128731
v 0.768898 19.435768 3.474926
v -0.768898 19.435768 3.474926
v 0.768898 16.644028 1.848119
v -0.768898 16.644028 1.848119
v 1.153347 23.662798 1.590936
v 1.922245 23.662798 1.590936
v 1.153347 23.662798 2.744282
v 1.922245 23.662798 2.744282
v 1.040744 20.315359 2.359834
v 1.040744 20.315359 1.975385
v -1.922245 23.662798 2.744282
v -1.922245 23.662798 1.590936
v -1.153347 23.662798 2.744282
v -1.153347 23.662798 1.590936
v -1.040744 20.315359 1.975385
v -1.040744 20.315359 2.359834
v -0.384449 17.412924 3.385914
v 0.384449 17.412924 3.385914
vt 7.874016 27.053730
vt 7.874016 19.179710
vt 11.811020 27.053730
vt 7.874016 -24.127371
vt 23.622049 -24.127371
vt 39.370079 -24.127371
vt 39.370079 -0.505327
vt 7.874016 3.431681
vt -7.874016 0.000000
vt -11.811020 3.937008
vt -23.622049 0.000000
vt -7.874016 19.685040
vt -11.811020 15.748030
vt -19.685040 15.748030
vt -19.685040 3.937008
vt -23.622049 19.685040
vt -39.370079 -24.127371
vt -31.496059 -14.284850
vt -39.370079 -0.505327
vt -23.622049 -24.127371
vt -23.622049 -14.284850
vt -31.496059 -10.347850
vt -11.811020 27.053730
vt -23.622049 -0.505327
vt -23.622049 -10.347850
vt -7.874016 15.242710
vt -7.874016 27.053730
vt 14.284850 -21.128201
vt 10.347850 -25.529909
vt 14.284850 -25.529909
vt 10.347850 -21.128201
vt -23.622049 3.937008
vt -31.496059 5.905512
vt -31.496059 3.937008
vt -23.622049 7.874016
vt -27.559059 7.874016
vt 10.347850 5.905512
vt 14.284850 3.937008
vt 14.284850 5.905512
vt 10.347850 3.937008
vt -23.622049 -14.284850
vt -27.559059 -10.347850
vt -27.559059 -14.284850
vt -23.622049 -10.347850
vt 31.496059 5.905512
vt 23.622049 3.937008
vt 31.496059 3.937008
vt 23.622049 7.874016
vt 27.559059 7.874016
vt -7.874016 -12.316350
vt -17.716539 3.431681
vt -17.716539 -12.316350
vt -7.874016 3.431681
vt -7.874016 19.685040
vt -17.716539 15.748030
vt -7.874016 15.748030
vt -17.716539 19.685040
vt -3.431681 19.685040
vt 12.316350 15.748030
vt 12.316350 19.685040
vt -3.431681 15.748030
vt 17.716539 19.685040
vt 7.874016 15.748030
vt 17.716539 15.748030
vt 7.874016 19.685040
vt 23.622049 0.000000
vt 19.685040 3.937008
vt 7.874016 0.000000
vt 23.622049 19.685040
vt 19.685040 15.748030
vt 11.811020 15.748030
vt 11.811020 3.937008
vt 7.874016 19.685040
vt -11.811020 27.053730
vt -7.874016 19.179710
vt -7.874016 27.053730
vt -7.874016 3.431681
vt -7.874016 -24.127371
vt -23.622049 -24.127371
vt -39.370079 -0.505327
vt -39.370079 -24.127371
vt -7.874016 -0.505327
vt -7.874016 19.685040
vt -17.716539 15.748030
vt -7.874016 15.748030
vt -17.716539 19.685040
vt 17.716539 19.685040
vt 7.874016 15.748030
vt 17.716539 15.748030
vt 7.874016 19.685040
vt 3.431681 15.748030
vt -12.316350 19.685040
vt -12.316350 15.748030
vt 3.431681 19.685040
vt 17.716539 -12.316350
vt 7.874016 3.431681
vt 7.874016 -12.316350
vt 17.716539 3.431681
vt 31.496059 -8.379342
vt 23.622049 -0.505327
vt 23.622049 -8.379342
vt 39.370079 -0.505327
vt 11.811020 27.053730
vt 7.874016 27.053730
vt 7.874016 15.242710
vt 31.496059 -12.316350
vt 39.370079 -24.127371
vt 23.622049 -12.316350
vt 23.622049 -24.127371
vt -12.316350 -21.128201
vt -8.379342 -25.529909
vt -8.379342 -21.128201
vt -12.316350 -25.529909
vt 27.559059 -12.316350
vt 23.622049 -8.379342
vt 23.622049 -12.316350
vt 27.559059 -8.379342
vt -8.379342 3.937008
vt -12.316350 5.905512
vt -12.316350 3.937008
vt -8.379342 5.905512
vt -23.622049 3.937008
vt -31.496059 5.905512
vt -31.496059 3.937008
vt -23.622049 7.874016
vt -27.559059 7.874016
vt 31.496059 5.905512
vt 23.622049 3.937008
vt 31.496059 3.937008
vt 23.622049 7.874016
vt 27.559059 7.874016
vt -23.622049 0.000000
vt -39.370079 3.937008
vt -39.370079 0.000000
vt -23.622049 3.937008
vt 11.811020 3.937008
vt 7.874016 0.000000
vt 11.811020 0.000000
vt 7.874016 1.249971
vt 7.874016 3.937008
vt 0.505327 3.937008
vt 24.127371 0.000000
vt 24.127371 3.937008
vt 0.505327 0.000000
vt -10.778220 3.937008
vt 28.196171 0.000000
vt 28.196171 3.937008
vt -10.778220 0.000000
vt 0.505327 15.748030
vt 24.127371 3.937008
vt 24.127371 15.748030
vt 14.284850 7.874016
vt 10.347850 7.874016
vt 10.347850 3.937008
vt 0.505327 3.937008
vt 14.284850 3.937008
vt 17.060631 15.748030
vt 13.123620 11.811020
vt 17.060631 3.937008
vt -5.210450 15.748030
vt -1.273442 11.811020
vt -1.273442 7.874016
vt 13.123620 7.874016
vt -5.210450 3.937008
vt -7.874016 -24.127371
vt -17.716539 -12.316350
vt -23.622049 -24.127371
vt -7.874016 -12.316350
vt -17.716539 3.431681
vt -23.622049 -0.505327
vt -7.874016 15.242710
vt -7.874016 3.431681
vt 10.778220 0.000000
vt -28.196171 3.937008
vt -28.196171 0.000000
vt 10.778220 3.937008
vt -7.874016 0.000000
vt -11.811020 3.937008
vt -11.811020 0.000000
vt -7.874016 1.249971
vt -7.874016 3.937008
vt -0.505327 0.000000
vt -24.127371 3.937008
vt -24.127371 0.000000
vt -0.505327 3.937008
vt 39.370079 3.937008
vt 23.622049 0.000000
vt 39.370079 0.000000
vt 23.622049 3.937008
vt -17.060631 3.937008
vt -13.123620 7.874016
vt -17.060631 15.748030
vt 5.210450 3.937008
vt 1.273442 7.874016
vt 1.273442 11.811020
vt -13.123620 11.811020
vt 5.210450 15.748030
vt -0.505327 3.937008
vt -8.379342 7.874016
vt -8.379342 3.937008
vt -0.505327 15.748030
vt -12.316350 7.874016
vt -24.127371 15.748030
vt -12.316350 3.937008
vt -24.127371 3.937008
vt 23.622049 -24.127371
vt 7.874016 -12.316350
vt 7.874016 -24.127371
vt 17.716539 -12.316350
vt 17.716539 3.431681
vt 23.622049 -0.505327
vt 7.874016 15.242710
vt 7.874016 3.431681
vt 27.053730 1.249971
vt 19.179710 0.000000
vt 27.053730 0.000000
vt -27.053730 0.000000
vt -19.179710 0.000000
vt -27.053730 1.249971
vt 37.324600 2.880433
vt 27.053730 3.937008
vt 27.053730 1.249971
vt 15.242710 15.748030
vt 15.242710 3.937008
vt -7.874016 39.897362
vt -7.874016 26.915131
vt 7.874016 39.897362
vt -7.874016 37.314610
vt -7.874016 18.942520
vt 7.874016 37.314610
vt 7.874016 18.942520
vt 7.874016 26.915131
vt -15.242710 15.748030
vt -27.053730 3.937008
vt -15.242710 3.937008
vt -37.324600 2.880433
vt -27.053730 1.249971
vt 7.874016 40.319111
vt 23.622049 27.869200
vt 23.622049 40.319111
vt 7.874016 27.869200
vt 7.874016 30.359180
vt -7.874016 -39.875401
vt -23.622049 -35.938400
vt -23.622049 -39.875401
vt -7.874016 -35.938400
vt 35.938400 19.685040
vt 39.875401 0.000000
vt 39.875401 19.685040
vt 24.127371 0.000000
vt -28.064381 0.000000
vt -39.875401 19.685040
vt -39.875401 0.000000
vt -35.938400 19.685040
vt -28.064381 15.748030
vt -26.489580 16.535431
vt 7.874016 -18.058809
vt -7.874016 -16.298130
vt -7.874016 -18.058809
vt -7.874016 -0.451978
vt 7.874016 -16.298130
vt 7.874016 -0.451978
vt 7.874016 15.748030
vt -7.874016 0.000000
vt 7.874016 0.000000
vt -7.874016 15.748030
vt 7.874016 -12.316350
vt -7.874016 3.431681
vt -7.874016 -12.316350
vt 7.874016 3.431681
vt -7.874016 -28.064381
vt 7.874016 -28.064381
vt -23.622049 -39.875401
vt -7.874016 -39.875401
vt 7.874016 -39.875401
vt 23.622049 -39.875401
vt 23.622049 -39.875401
vt 7.874016 -35.938400
vt 7.874016 -39.875401
vt 23.622049 -35.938400
vt 26.489580 16.535431
vt 28.064381 15.748030
vt 35.938400 19.685040
vt 28.064381 0.000000
vt 39.875401 0.000000
vt 39.875401 19.685040
vt -24.127371 0.000000
vt -39.875401 19.685040
vt -39.875401 0.000000
vt -35.938400 19.685040
vt -23.622049 40.319111
vt -7.874016 30.359180
vt -7.874016 40.319111
vt -7.874016 27.869200
vt -23.622049 27.869200
vt -7.874016 -2.250720
vt 7.874016 -10.114960
vt 7.874016 -2.250720
vt -7.874016 -10.114960
vt -3.431681 23.622049
vt 12.316350 19.685040
vt 12.316350 23.622049
vt -3.431681 19.685040
vt -11.286160 23.230301
vt -3.431681 15.748030
vt -39.875401 6.570727
vt -39.875401 3.285364
vt 12.316350 15.748030
vt 24.127371 15.748030
vt 26.489580 16.535431
vt 7.874016 6.570727
vt -7.874016 3.285364
vt 7.874016 3.285364
vt -7.874016 6.570727
vt 3.431681 19.685040
vt 3.431681 15.748030
vt 3.431681 23.622049
vt 11.286160 23.230301
vt 39.875401 6.570727
vt 39.875401 3.285364
vt -12.316350 23.622049
vt -12.316350 19.685040
vt -12.316350 15.748030
vt -24.127371 15.748030
vt -26.489580 16.535431
vt -11.811020 15.748030
vt -19.685040 3.937008
vt -11.811020 3.937008
vt -19.685040 15.748030
vt -11.811020 -39.875401
vt -19.685040 -32.001389
vt -19.685040 -39.875401
vt -11.811020 -32.001389
vt 32.001389 15.748030
vt 39.875401 3.937008
vt 39.875401 15.748030
vt 32.001389 3.937008
vt 11.811020 -32.001389
vt 19.685040 -39.875401
vt 19.685040 -32.001389
vt 11.811020 -39.875401
vt -32.001389 3.937008
vt -39.875401 15.748030
vt -39.875401 3.937008
vt -32.001389 15.748030
vt -12.458820 11.811020
vt -2.278558 7.874016
vt -2.278558 11.811020
vt -12.458820 7.874016
vt -10.657900 12.458820
vt -20.838160 2.278558
vt -10.657900 2.278558
vt 10.657900 2.278558
vt 20.838160 2.278558
vt 10.657900 12.458820
vt 20.838160 11.811020
vt 10.657900 7.874016
vt 20.838160 7.874016
vt 10.657900 11.811020
vt 32.001389 15.748030
vt 39.875401 3.937008
vt 39.875401 15.748030
vt 32.001389 3.937008
vt -19.685040 -32.001389
vt -11.811020 -39.875401
vt -11.811020 -32.001389
vt -19.685040 -39.875401
vt -32.001389 3.937008
vt -39.875401 15.748030
vt -39.875401 3.937008
vt -32.001389 15.748030
vt 19.685040 15.748030
vt 11.811020 3.937008
vt 19.685040 3.937008
vt 11.811020 15.748030
vt 19.685040 -39.875401
vt 11.811020 -32.001389
vt 11.811020 -39.875401
vt 19.685040 -32.001389
vt -10.657900 11.811020
vt -20.838160 7.874016
vt -10.657900 7.874016
vt -20.838160 11.811020
vt 12.458820 7.874016
vt 2.278558 11.811020
vt 2.278558 7.874016
vt 12.458820 11.811020
vt -20.838160 2.278558
vt -10.657900 2.278558
vt -10.657900 12.458820
vt 20.838160 2.278558
vt 10.657900 12.458820
vt 10.657900 2.278558
vt 37.473030 1.068768
vt 30.553089 17.730551
vt 9.469408 18.694981
vt -37.473030 1.068768
vt -9.469408 18.694981
vt -30.553089 17.730551
vt 3.937008 5.651048
vt -7.874016 -11.955790
vt 7.874016 -11.955790
vt -3.937008 5.651048
vt -7.874016 -10.254020
vt 3.937008 -30.989300
vt 7.874016 -10.254020
vt -3.937008 -30.989300
vn 0.0000 -0.0000 -1.0000
vn 1.0000 0.0000 0.0000
vn 0.0000 1.0000 -0.0000
vn 0.0000 0.0000 1.0000
vn 0.4472 0.0000 0.8944
vn 0.0000 -1.0000 0.0000
vn -1.0000 0.0000 0.0000
vn -0.4472 0.0000 0.8944
vn 0.7071 -0.7071 0.0000
vn -0.7071 -0.7071 0.0000
vn 0.0000 -0.1568 -0.9876
vn 0.7485 0.0476 0.6614
vn 0.6399 0.0506 0.7668
vn 0.6975 0.0493 0.7149
vn -0.0000 0.1567 0.9876
vn -0.0000 0.1568 0.9876
vn 0.0000 -0.3162 0.9487
vn -0.0000 0.9173 0.3983
vn 0.0000 0.5737 -0.8190
vn 0.0000 0.9487 -0.3162
vn 0.0000 0.0000 0.0000
vn 0.0000 0.4472 0.8944
vn 0.0000 -0.0498 0.9988
vn -0.9258 -0.1903 0.3266
vn 0.9258 -0.1903 0.3266
vn 0.0000 -0.8944 0.4472
vn 0.0000 -0.0440 0.9990
usemtl metal.002
s off
f 11/15/7 10/16/7 9/17/7
f 12/18/7 9/17/7 10/16/7
f 13/19/7 9/17/7 12/18/7
f 14/20/7 9/17/7 13/19/7
f 9/17/7 14/20/7 15/21/7
f 12/18/8 10/16/8 16/22/8
f 19/23/9 18/24/9 17/25/9
f 18/24/9 19/23/9 20/26/9
f 18/24/9 20/26/9 21/27/9
f 21/27/9 20/26/9 22/28/9
f 23/29/9 17/25/9 18/24/9
f 17/25/9 23/29/9 24/30/9
f 24/30/9 23/29/9 22/28/9
f 24/30/9 22/28/9 20/26/9
f 27/31/10 26/32/10 25/33/10
f 26/32/10 27/31/10 28/34/10
f 26/32/10 28/34/10 29/35/10
f 30/36/10 25/33/10 26/32/10
f 25/33/10 30/36/10 31/37/10
f 31/37/10 30/36/10 32/38/10
f 32/38/10 30/36/10 33/39/10
f 31/37/10 32/38/10 34/40/10
f 31/37/10 34/40/10 35/41/10
f 38/42/11 37/43/11 36/44/11
f 37/43/11 38/42/11 39/45/11
f 29/46/9 36/47/9 26/48/9
f 36/47/9 29/46/9 40/49/9
f 36/47/9 40/49/9 38/50/9
f 37/51/8 26/52/8 36/53/8
f 26/52/8 37/51/8 30/54/8
f 40/55/10 39/56/10 38/57/10
f 39/56/10 40/55/10 41/58/10
f 37/59/12 33/60/12 30/61/12
f 33/60/12 37/59/12 41/62/12
f 41/62/12 37/59/12 39/63/12
f 44/64/10 43/65/10 42/66/10
f 43/65/10 44/64/10 45/67/10
f 44/68/9 47/69/9 46/70/9
f 47/69/9 44/68/9 42/71/9
f 43/72/8 47/73/8 42/74/8
f 47/73/8 43/72/8 48/75/8
f 43/76/12 49/77/12 48/78/12
f 49/77/12 43/76/12 45/79/12
f 52/80/9 51/81/9 50/82/9
f 51/81/9 52/80/9 53/83/9
f 51/81/9 53/83/9 54/84/9
f 54/84/9 53/83/9 55/85/9
f 56/86/9 50/82/9 51/81/9
f 50/82/9 56/86/9 57/87/9
f 57/87/9 56/86/9 55/85/9
f 57/87/9 55/85/9 53/83/9
f 60/88/7 59/89/7 58/90/7
f 59/89/7 60/88/7 61/91/7
f 61/91/7 60/88/7 62/92/7
f 62/92/7 60/88/7 63/93/7
f 63/93/7 60/88/7 64/94/7
f 63/93/7 64/94/7 65/95/7
f 62/92/10 66/96/10 61/91/10
f 69/97/12 68/98/12 67/99/12
f 68/98/12 69/97/12 70/100/12
f 73/101/9 72/102/9 71/103/9
f 72/102/9 73/101/9 74/104/9
f 68/105/13 73/106/13 71/107/13
f 73/106/13 68/105/13 70/108/13
f 73/109/10 69/110/10 74/111/10
f 69/110/10 73/109/10 70/112/10
f 77/113/10 76/114/10 75/115/10
f 78/116/10 76/114/10 77/113/10
f 79/117/10 76/114/10 78/116/10
f 80/118/10 76/114/10 79/117/10
f 76/114/10 80/118/10 81/119/10
f 78/116/10 77/113/10 82/120/10
f 78/116/10 82/120/10 83/121/10
f 84/122/10 83/121/10 82/120/10
f 83/121/10 84/122/10 85/123/10
f 88/124/14 87/125/14 86/126/14
f 87/125/14 88/124/14 89/127/14
f 88/128/10 91/129/10 90/130/10
f 91/129/10 88/128/10 86/131/10
f 77/132/13 89/133/13 82/134/13
f 89/133/13 77/132/13 87/135/13
f 75/136/12 87/137/12 77/138/12
f 87/137/12 75/136/12 91/139/12
f 87/137/12 91/139/12 86/140/12
f 89/141/9 84/142/9 82/143/9
f 84/142/9 89/141/9 90/144/9
f 90/144/9 89/141/9 88/145/9
usemtl metalRed.002
f 13/146/9 27/147/9 14/148/9
f 27/147/9 13/146/9 28/149/9
f 31/150/12 11/151/12 9/152/12
f 11/151/12 31/150/12 92/153/12
f 92/153/12 31/150/12 35/154/12
f 25/155/8 14/156/8 27/157/8
f 14/156/8 25/155/8 15/158/8
f 31/159/15 15/160/15 25/161/15
f 15/160/15 31/159/15 9/162/15
f 94/163/8 28/164/8 93/165/8
f 28/164/8 94/163/8 40/166/8
f 40/166/8 94/163/8 41/167/8
f 41/167/8 94/163/8 33/168/8
f 33/168/8 94/163/8 32/169/8
f 29/170/8 28/164/8 40/166/8
f 94/171/15 95/172/15 32/173/15
f 95/172/15 94/171/15 96/174/15
f 95/172/15 96/174/15 97/175/15
f 97/175/15 96/174/15 98/176/15
f 99/177/15 32/173/15 95/172/15
f 32/173/15 99/177/15 34/178/15
f 34/178/15 99/177/15 98/176/15
f 34/178/15 98/176/15 96/174/15
f 100/179/10 47/180/10 93/181/10
f 47/180/10 100/179/10 46/182/10
f 48/183/10 93/181/10 47/180/10
f 48/183/10 94/184/10 93/181/10
f 94/184/10 48/183/10 96/185/10
f 96/185/10 48/183/10 49/186/10
f 60/187/16 78/188/16 64/189/16
f 78/188/16 60/187/16 79/190/16
f 58/191/12 79/192/12 60/193/12
f 79/192/12 58/191/12 101/194/12
f 79/192/12 101/194/12 80/195/12
f 64/196/13 83/197/13 65/198/13
f 83/197/13 64/196/13 78/199/13
f 83/200/9 63/201/9 65/202/9
f 63/201/9 83/200/9 85/203/9
f 76/204/16 103/205/16 102/206/16
f 103/205/16 76/204/16 81/207/16
f 103/205/16 81/207/16 104/208/16
f 104/208/16 81/207/16 105/209/16
f 106/210/16 102/206/16 103/205/16
f 102/206/16 106/210/16 107/211/16
f 107/211/16 106/210/16 105/209/16
f 107/211/16 105/209/16 81/207/16
f 76/212/13 91/213/13 75/214/13
f 102/215/13 91/213/13 76/212/13
f 102/215/13 90/216/13 91/213/13
f 108/217/13 90/216/13 102/215/13
f 108/217/13 84/218/13 90/216/13
f 84/218/13 108/217/13 85/219/13
f 108/220/10 72/221/10 109/222/10
f 72/221/10 108/220/10 71/223/10
f 71/223/10 108/220/10 68/224/10
f 102/225/10 68/224/10 108/220/10
f 107/226/10 68/224/10 102/225/10
f 68/224/10 107/226/10 67/227/10
f 92/228/13 10/229/13 11/230/13
f 58/231/8 59/232/8 101/233/8
f 110/234/13 80/235/13 101/236/13
f 107/237/13 80/235/13 110/234/13
f 80/235/13 107/237/13 81/238/13
f 59/89/7 16/22/7 10/16/7
f 16/22/7 59/89/7 61/91/7
f 112/239/17 101/240/17 111/241/17
f 101/240/18 112/239/19 110/242/20
f 59/243/17 111/241/17 101/240/17
f 59/243/17 113/244/17 111/241/17
f 10/245/17 113/244/17 59/243/17
f 113/244/21 10/245/22 92/246/22
f 96/247/8 35/248/8 34/249/8
f 35/248/8 96/247/8 113/250/8
f 35/248/8 113/250/8 92/251/8
usemtl metalDark.002
f 115/252/23 93/253/23 114/254/23
f 93/253/23 115/252/23 100/255/23
f 100/255/24 115/252/25 116/256/26
f 20/257/10 114/258/10 24/259/10
f 114/258/10 20/257/10 115/260/10
f 114/261/8 17/262/8 24/263/8
f 17/262/8 114/261/8 13/264/8
f 13/264/8 114/261/8 93/165/8
f 13/264/27 93/165/27 28/164/27
f 117/265/13 20/266/13 19/267/13
f 20/266/13 117/265/13 115/268/13
f 115/268/13 117/265/13 118/269/13
f 115/268/13 118/269/13 116/270/13
f 119/271/28 116/272/28 118/273/28
f 116/272/28 119/271/28 120/274/28
f 120/274/28 119/271/28 121/275/28
f 122/276/28 120/274/28 121/275/28
f 119/277/9 117/278/9 123/279/9
f 117/278/9 119/277/9 118/280/9
f 122/281/10 124/282/10 120/283/10
f 124/282/10 122/281/10 125/284/10
f 66/96/7 123/285/7 117/286/7
f 123/285/8 66/96/8 62/92/8
f 123/285/7 62/92/7 63/93/7
f 52/287/7 123/285/7 63/93/7
f 123/285/7 52/287/7 50/288/7
f 117/286/7 61/91/7 66/96/7
f 12/18/7 61/91/7 117/286/7
f 61/91/7 12/18/7 16/22/7
f 19/289/13 12/18/13 117/286/13
f 17/290/7 12/18/7 19/289/7
f 12/18/7 17/290/7 13/19/7
f 53/291/10 126/292/10 57/293/10
f 126/292/10 53/291/10 127/294/10
f 121/295/8 119/296/8 126/297/8
f 123/298/8 126/297/8 119/296/8
f 50/299/8 126/297/8 123/298/8
f 126/297/8 50/299/8 57/300/8
f 63/301/13 53/302/13 52/303/13
f 53/302/13 63/301/13 127/304/13
f 127/304/13 63/301/13 108/217/13
f 108/217/9 63/301/9 85/219/9
f 127/305/23 121/306/23 126/307/23
f 121/306/23 127/305/23 109/308/23
f 109/308/23 127/305/23 108/309/23
f 125/310/29 128/311/29 124/312/29
f 128/311/29 125/310/29 129/313/29
f 124/314/8 44/315/8 120/316/8
f 44/315/8 124/314/8 45/317/8
f 45/317/8 124/314/8 128/318/8
f 45/317/8 128/318/8 49/319/8
f 49/319/8 128/318/8 96/247/8
f 96/247/8 128/318/8 130/320/8
f 96/247/8 130/320/8 113/250/8
f 113/250/8 130/320/8 111/321/8
f 46/322/27 120/316/27 44/315/27
f 100/323/8 120/316/8 46/322/8
f 120/316/8 100/323/8 116/324/8
f 130/325/12 112/326/12 111/327/12
f 112/326/12 130/325/12 131/328/12
f 107/237/13 69/329/13 67/330/13
f 69/329/13 107/237/13 125/331/13
f 125/331/13 107/237/13 129/332/13
f 129/332/13 107/237/13 131/333/13
f 131/333/13 107/237/13 110/234/13
f 131/333/13 110/234/13 112/334/13
f 122/335/13 69/329/13 125/331/13
f 122/335/13 74/336/13 69/329/13
f 122/335/27 72/337/27 74/336/27
f 122/335/13 109/338/13 72/337/13
f 109/338/13 122/335/13 121/339/13
usemtl dark.002
f 134/340/9 133/341/9 132/342/9
f 133/341/9 134/340/9 135/343/9
f 18/344/10 133/345/10 23/346/10
f 133/345/10 18/344/10 132/347/10
f 134/348/8 18/349/8 21/350/8
f 18/349/8 134/348/8 132/351/8
f 134/352/7 22/353/7 135/354/7
f 22/353/7 134/352/7 21/355/7
f 133/356/13 22/357/13 23/358/13
f 22/357/13 133/356/13 135/359/13
f 97/360/8 137/361/8 136/362/8
f 137/361/8 97/360/8 98/363/8
f 98/364/10 99/365/10 137/366/10
f 136/367/7 95/368/7 97/369/7
f 95/370/12 137/371/12 99/372/12
f 137/371/12 95/370/12 136/373/12
f 138/374/8 51/375/8 54/376/8
f 51/375/8 138/374/8 139/377/8
f 138/378/7 55/379/7 140/380/7
f 55/379/7 138/378/7 54/381/7
f 141/382/13 55/383/13 56/384/13
f 55/383/13 141/382/13 140/385/13
f 138/386/9 141/387/9 139/388/9
f 141/387/9 138/386/9 140/389/9
f 51/390/10 141/391/10 56/392/10
f 141/391/10 51/390/10 139/393/10
f 143/394/12 103/395/12 142/396/12
f 103/395/12 143/394/12 106/397/12
f 104/398/13 143/399/13 142/400/13
f 143/399/13 104/398/13 105/401/13
f 106/402/7 143/403/7 105/404/7
f 103/405/10 104/406/10 142/407/10
f 131/408/30 144/409/30 129/410/30
f 130/411/31 128/412/31 145/413/31
f 145/414/32 131/415/32 130/416/32
f 131/415/32 145/414/32 144/417/32
f 129/418/33 145/419/33 128/420/33
f 145/419/33 129/418/33 144/421/33
